<svg version="1.0" xmlns="http://www.w3.org/2000/svg" width="512" height="512" viewBox="0 0 384 384">
    <path fill="#F57300" d="M131.97 3.764c-3.573 1.096-6.241 3.573-7.194 6.765-.286.953-.667 11.339-.858 24.393-.238 16.532-.524 22.916-.905 23.297-.429.429-4.288.715-12.387.905-18.39.572-19.343.667-24.012 2.334-10.1 3.668-16.866 9.671-21.773 19.343-3.573 7.099-4.764 14.531-4.812 30.253 0 6.765-.143 9.052-.667 9.719-.619.858-1.858.953-22.964 1.286-12.292.191-23.297.476-24.441.667-4.145.572-8.242 6.67-7.432 11.053.524 2.811 2.525 6.003 4.574 7.337 2.477 1.62 4.24 1.715 29.062 2.001 12.911.095 19.676.333 20.343.715 1.429.762 1.667 3.716 1.429 20.058-.095 10.72-.333 14.436-.762 14.865-.476.476-5.812.667-23.107.905-24.822.381-24.631.333-27.919 3.43-5.193 4.907-4.24 12.768 2.001 16.913l1.953 1.286 22.63.238c12.482.191 23.059.476 23.535.667.429.238 1 .953 1.191 1.667.191.667.333 8.242.333 16.818 0 14.34-.048 15.674-.858 16.437-.762.81-2.573.858-23.583 1.096-22.63.238-22.726.238-24.965 1.334-2.763 1.382-3.954 2.811-4.907 5.955-.953 3.287-.905 4.431.429 7.242 1.239 2.668 3.192 4.669 5.288 5.527 1 .381 8.337.619 24.393.858 20.629.238 23.059.381 23.774 1.096.715.667.858 2.62 1.191 14.531.429 16.151 1.096 20.153 4.431 27.061 3.859 8.004 9.957 14.198 17.675 18.009 6.718 3.335 6.622 3.287 23.345 3.621 10.529.191 15.579.476 16.246.858.619.381 1.143 1.286 1.334 2.382.143 1 .286 9.1.286 18.057 0 8.909.143 18.533.333 21.392.286 4.669.429 5.336 1.763 7.289 1.715 2.573 5.098 4.812 7.813 5.193 2.525.333 7.575-1.906 9.1-4.05 2.668-3.764 2.62-3.383 2.906-26.87l.238-21.773 1.096-1.096c1.048-1.096 1.286-1.096 14.055-1.239 7.099-.095 14.055-.048 15.389.143 4.574.572 4.193-1.572 4.574 24.869.191 12.768.476 23.964.619 24.822.191.953 1.143 2.525 2.239 3.716 4.764 5.193 12.387 4.383 16.437-1.81l1.334-2.001.238-23.726.238-23.726 1.096-1.048c1.096-1.096 1.096-1.096 16.199-1.096 8.29 0 15.674.143 16.389.381.953.238 1.429.81 1.81 2.144.286 1.048.524 10.863.572 24.488.143 25.536-.143 23.535 3.907 26.775 1.62 1.334 2.096 1.477 5.193 1.477 4.621 0 7.623-1.525 9.624-4.764l1.429-2.287.238-22.678c.286-24.202.333-24.441 2.668-25.298.667-.286 7.575-.476 15.389-.476 15.722 0 17.104-.191 23.011-3.097 9.624-4.764 16.961-12.864 20.153-22.154 1.525-4.431 2.001-9.386 2.43-24.155.191-8.29.476-11.768.905-12.387.572-.81 2.334-.858 22.964-1.191 13.816-.191 22.916-.476 23.964-.81 2.906-.905 5.384-2.62 6.908-4.717 1.286-1.906 1.429-2.43 1.429-5.955s-.143-4.097-1.429-6.051c-.953-1.429-2.239-2.573-3.859-3.383l-2.477-1.239-22.964-.238c-22.773-.238-22.964-.238-23.964-1.286-1.048-1-1.048-1.239-1.048-16.961s0-15.96 1.048-16.961c1-1.048 1.239-1.048 24.298-1.334 22.344-.286 23.345-.333 25.155-1.286 1.048-.524 2.573-1.906 3.335-3.001 1.334-1.906 1.429-2.334 1.429-6.432s-.095-4.526-1.334-6.146c-.715-.953-2.334-2.334-3.573-3.049l-2.239-1.334-12.625-.333c-6.956-.143-17.151-.333-22.678-.333-9.195-.048-10.196-.143-11.196-.953l-1.143-.905v-16.484c0-15.007.095-16.532.81-17.294.762-.762 2.668-.81 22.868-.953 12.149-.095 22.964-.286 24.107-.429 2.525-.333 5.527-2.811 6.813-5.669 2.573-5.574-.524-12.625-6.051-14.007-1.525-.381-9.767-.667-24.631-.858-19.915-.286-22.44-.381-23.297-1.096-.953-.762-1-1.477-1.382-14.102-.524-16.961-.953-19.819-4.193-26.442-4.526-9.195-12.244-16.103-21.82-19.581-2.43-.858-4.764-1.048-19.438-1.572-9.147-.333-16.723-.619-16.77-.667-1.096-.524-1.286-3.811-1.525-25.06l-.286-22.868-1.188-2.145c-.667-1.143-2.096-2.811-3.24-3.668-1.906-1.477-2.334-1.572-5.622-1.572-4.621 0-6.813 1.048-8.623 4.145l-1.334 2.287-.238 23.964c-.238 23.25-.286 24.012-1.191 24.679-.81.572-3.526.667-17.008.572-14.531-.143-16.151-.238-16.913-.953-.715-.762-.858-2.906-1.143-24.107-.333-25.87-.143-24.488-3.764-27.966l-1.953-1.906h-4.669c-4.383 0-4.764.095-6.384 1.334-1 .762-2.239 2.239-2.811 3.335-1.048 1.953-1.048 2.43-1.334 25.489-.238 22.583-.286 23.535-1.143 24.202-.762.524-3.811.667-16.294.667-14.388 0-15.389-.048-16.437-.905l-1.143-.905-.238-23.059-.238-23.011-1.286-2.477c-.715-1.334-1.906-2.859-2.62-3.383-2.477-1.763-6.765-2.43-9.671-1.572m146.025 77.181c10.196.333 10.529.381 13.006 1.667 3.097 1.572 6.146 4.526 8.004 7.718l1.382 2.334v196.288l-1.382 2.859c-1.525 3.097-5.336 7.242-7.956 8.623-1.334.667-3.383.905-11.387 1.191-12.292.476-160.413.476-174.849 0-12.197-.381-12.006-.333-16.627-4.574-5.193-4.812-5.002-3.811-5.336-28.347-.476-28.681-.429-160.46 0-169.37.333-6.622.429-7.289 1.667-9.386 1.858-3.192 4.907-6.051 7.909-7.48 2.43-1.143 3.24-1.239 11.434-1.525 13.197-.381 162.08-.381 174.134 0"/>
    <path fill="#F57300" d="M179.565 99.478c-3.144.381-6.051 2.144-7.575 4.621-.858 1.429-1.096 2.62-1.286 7.528-.143 3.192-.476 6.194-.715 6.718-.858 1.667-14.626 7.432-17.723 7.432-1.143 0-2.239-.619-4.335-2.334-4.335-3.573-6.67-4.86-9.481-5.145-4.574-.476-7.813 2.001-16.627 12.625-8.004 9.624-8.337 13.054-2.239 20.582 3.764 4.669 4.05 5.527 3.001 8.099-1.429 3.526-4.812 9.624-6.718 12.149l-1.81 2.382-5.193.476c-5.574.524-7.289 1.143-9.338 3.43-3.097 3.335-3.049 3.049-3.049 16.103 0 11.387.048 12.006 1.048 14.102.619 1.191 1.715 2.763 2.525 3.526 1.286 1.239 1.81 1.382 7.718 1.906 6.289.572 6.289.572 7.67 2.192 1.953 2.334 7.099 13.102 7.146 14.96.048 1.239-.572 2.382-2.716 5.241-4.002 5.193-4.86 8.242-3.43 12.244.715 1.953 1.81 3.43 8.528 11.482 5.241 6.289 7.385 8.052 11.053 9.195 2.334.762 2.525.762 4.669-.191 1.191-.524 3.859-2.239 5.908-3.811 4.24-3.192 5.431-3.907 6.67-3.907.953.048 14.245 5.622 15.913 6.765 1 .667 1.143 1.143 1.429 6.861.381 7.67 1.572 10.434 5.431 12.435 1.715.905 16.294 1.429 23.678.858 4.002-.286 4.955-.524 7.099-1.81 3.573-2.192 4.24-3.716 4.717-11.101.381-5.431.524-6.146 1.525-7.146 1.048-1.048 8.004-4.193 13.197-5.955 4.145-1.429 4.812-1.286 8.671 2.144 4.383 3.859 7.099 5.288 10.005 5.193 3.716-.095 6.194-1.858 12.244-8.862 11.387-13.149 11.958-15.532 5.336-23.678-1.382-1.667-2.859-3.764-3.24-4.669l-.762-1.62 3.621-7.194c2.001-4.002 4.097-7.67 4.574-8.242.81-.858 1.763-1.048 6.575-1.334 3.144-.191 6.194-.667 6.908-1 1.858-1 4.145-3.811 4.478-5.574.191-.858.238-7.051.143-13.816l-.143-12.197-1.429-2.049c-2.144-3.049-4.717-4.145-10.672-4.526-4.478-.286-5.098-.476-6.051-1.525-1.525-1.572-7.813-14.15-7.813-15.532 0-1.239 1.572-3.764 4.335-6.861 3.811-4.383 4.621-8.004 2.668-12.244-2.334-5.002-13.435-17.818-16.77-19.343-4.002-1.858-6.908-1.048-13.578 3.859-3.811 2.763-4.193 2.954-6.194 2.716-2.62-.238-16.58-6.051-17.199-7.146 0-.048-.191-2.763-.381-6.051-.429-7.909-1.382-10.053-5.241-11.815-2.573-1.191-2.954-1.239-13.388-1.334-5.908-.048-11.911.048-13.388.191m18.39 52.455c9.862 2.382 15.484 5.384 21.868 11.768 6.146 6.146 9.147 11.672 11.339 20.677 1.286 5.431 1.048 16.437-.524 21.916-2.43 8.48-7.766 16.389-14.579 21.773-6.432 5.098-17.723 9.195-25.251 9.195-3.478 0-11.768-1.858-15.96-3.526-11.911-4.86-20.2-14.245-23.821-27.061-1.239-4.335-1.763-13.435-1.048-18.724 1.858-13.578 10.672-26.203 22.726-32.349 8.242-4.24 17.39-5.527 25.251-3.668"/>
</svg>