<svg xmlns="http://www.w3.org/2000/svg" width="471.951" height="161.532" viewBox="0 0 924.87 242.739"><path style="fill:#006b33;fill-opacity:1;stroke-width:.34794521" d="M-141.042 147.158V44.514h32.011v6.785c0 3.732.057 6.785.127 6.785s2.09-1.23 4.49-2.733C-76.104 37.618-34.95 32.278 1.963 41.548 35.218 49.9 59.326 69.726 67.896 95.77c5.008 15.22 4.732 32.145-.764 46.865-6.838 18.31-20.894 33.03-41.168 43.115-17.742 8.825-37.998 13.244-60.709 13.244-18.827 0-36.386-3.139-51.844-9.268-6.133-2.432-13.995-6.425-18.764-9.53l-3.678-2.393v71.999h-32.011zm121.78 24.548c18.006-2.554 31.976-8.266 42.45-17.358 7.929-6.883 13.45-16.441 15.543-26.905.855-4.28.857-14.386.005-18.653-2.463-12.314-9.52-23.071-20.084-30.615-4.258-3.04-12.907-7.372-18.428-9.23-15.59-5.244-34.493-6.797-51.805-4.256-30.06 4.412-50.376 19.32-55.827 40.965-2.405 9.55-1.975 19.859 1.203 28.87 7.219 20.467 28.505 34.087 58.587 37.486 6.047.683 22.653.505 28.357-.304zm106.124-24.548V44.514h32.011v6.785c0 3.732.07 6.785.154 6.785.085 0 1.847-1.103 3.915-2.451 4.785-3.12 14.23-7.785 20.287-10.02 26.145-9.651 58.068-11.208 86.005-4.194 45.539 11.433 72.356 42.757 69.824 81.557-1.932 29.617-21.64 53.945-54.055 66.73-10.574 4.17-21.41 6.8-34.972 8.486-7.157.89-26.449.89-33.921-.002-21.148-2.523-39.716-8.803-54.192-18.329l-3.045-2.003v71.944H86.862zm122.555 24.397c24.937-3.724 42.51-13.77 51.745-29.58 5.363-9.184 7.371-21.4 5.382-32.743-4.134-23.577-24.854-39.891-56.577-44.547-20.938-3.073-44.578-.012-60.649 7.853-16.404 8.028-26.277 20.016-29.647 35.998-.885 4.195-.882 14.981.005 19.093 2.386 11.07 7.781 20.229 15.97 27.113 11.274 9.478 25.947 15.121 44.988 17.303 6.298.722 22.52.446 28.783-.49m-482.678 27.227c-16.98-1.5-31.474-4.845-43.798-10.109-28.032-11.973-45.737-32.18-50.542-57.686-.918-4.872-1.268-15.846-.673-21.09 3.47-30.58 25.996-54.8 61.61-66.245 18.952-6.091 42.281-8.08 63.22-5.392 38.363 4.925 67.383 22.715 80.138 49.125 10.385 21.505 9.067 47.626-3.416 67.707-5.624 9.047-14.883 18.382-24.424 24.626-14.844 9.714-32.573 15.757-54.106 18.443-4.313.538-24.008.975-28.01.621m22.707-26.74c16.698-1.772 30.745-6.539 41.315-14.02 8.64-6.116 15.477-15.13 18.545-24.448 1.796-5.455 2.152-8.016 2.152-15.47 0-7.431-.35-9.971-2.133-15.43-5.856-17.94-22.986-31.286-46.922-36.555-20.985-4.62-45.459-3.014-63.592 4.172-13.081 5.184-23.407 13.575-29.462 23.943-6.44 11.025-7.9 26.042-3.792 38.983 4.425 13.943 16.084 25.613 32.128 32.158 8.74 3.565 19.56 6.049 30.272 6.949 4.11.345 17.197.174 21.489-.282m660.31 26.752c-.67-.076-3.02-.309-5.22-.517-17.67-1.675-36.247-7.255-49.866-14.98-18.411-10.442-31.235-25.283-37.089-42.924-3.962-11.939-4.638-25.356-1.9-37.7 4.139-18.664 15.5-34.513 33.145-46.235 23.267-15.459 57.479-22.324 90.505-18.163 27.438 3.457 50.043 13.492 65.773 29.199 11.979 11.96 18.866 25.976 20.856 42.445.518 4.28.437 12.934-.162 17.475-4.317 32.702-30.24 57.695-69.94 67.432-12.037 2.952-19.593 3.846-33.75 3.992-6.125.063-11.683.053-12.353-.024m21.05-26.589c21.136-1.944 38.363-8.91 49.422-19.983 7.488-7.498 11.834-15.751 13.547-25.726.706-4.11.696-12.678-.02-16.942-3.852-22.952-24.089-39.589-54.076-44.457-7.2-1.169-11.988-1.55-19.485-1.55-33.62 0-59.707 12.677-69.74 33.89-2.99 6.323-4.37 12.848-4.37 20.667 0 10.318 2.405 18.5 7.833 26.654 9.964 14.968 28.862 24.53 53.873 27.26 5.16.564 17.805.666 23.016.187" transform="translate(383.568 -22.063)"/></svg>