<svg xmlns="http://www.w3.org/2000/svg" width="1024" height="320" viewBox="-0.72 -0.72 81.44 25.44"><path d="M0 0h80v24H0Z" style="fill:#ffc915"/><path d="M33.02 7.149c1.253 0 2.462.424 3.378 1.175V7.32h1.718v10.931h-1.718v-1c-.9.747-2.11 1.169-3.378 1.169-1.556 0-2.971-.576-3.984-1.62-1.005-1.031-1.556-2.453-1.556-4.007 0-1.555.553-2.982 1.556-4.017 1.015-1.05 2.43-1.627 3.984-1.627m-11.891-.04c1.407 0 2.682.513 3.595 1.449.972.995 1.49 2.393 1.5 4.046v.563h-8.846c.106 2.053 1.673 3.577 3.71 3.577 1.463 0 2.51-.624 3.296-1.964l.096-.162 1.489.958-.087.148c-1.009 1.736-2.666 2.654-4.795 2.654-3.211 0-5.454-2.314-5.454-5.625 0-3.27 2.311-5.644 5.496-5.644m45.695 0c1.407 0 2.683.513 3.596 1.449.971.995 1.489 2.393 1.5 4.046v.563h-8.847c.107 2.053 1.674 3.577 3.711 3.577 1.463 0 2.51-.624 3.296-1.964l.096-.162 1.488.958-.086.148c-1.01 1.736-2.667 2.654-4.796 2.654-3.21 0-5.453-2.314-5.455-5.625 0-3.27 2.313-5.644 5.497-5.644m-51.853.189V8.93H9.993v9.318H8.256V7.298Zm40.84-.15c2.489 0 4.036 1.71 4.036 4.46v6.62h-1.738v-6.62c0-1.717-.985-2.826-2.509-2.826-1.96 0-2.658 1.351-2.658 2.616v6.833h-1.738v-6.62c0-1.744-.953-2.827-2.488-2.827-1.265 0-2.616.983-2.616 2.445v6.995h-1.738V7.296H46.1v1.06c.718-.783 1.74-1.207 2.933-1.207 1.767 0 2.734.893 3.254 1.74.79-1.109 2.057-1.74 3.524-1.74M42.107 4.072V18.23h-1.738V4.07ZM32.933 8.89c-2.117 0-3.715 1.68-3.715 3.907 0 2.215 1.598 3.884 3.715 3.886 2.198 0 3.674-1.562 3.674-3.886 0-2.336-1.476-3.907-3.674-3.907M21.09 8.74c-1.751 0-3.213 1.164-3.631 2.858h7c-.307-1.718-1.636-2.858-3.37-2.858m45.693 0c-1.75 0-3.213 1.164-3.63 2.858h7c-.308-1.718-1.636-2.858-3.37-2.858" style="fill:#111"/></svg>