<?xml version="1.0" encoding="utf-8"?>
<!-- Generator: Adobe Illustrator 19.0.0, SVG Export Plug-In . SVG Version: 6.00 Build 0)  -->
<svg version="1.1" id="layer" xmlns="http://www.w3.org/2000/svg" xmlns:xlink="http://www.w3.org/1999/xlink" x="0px" y="0px"
	 viewBox="-153 -46 652 652" style="enable-background:new -153 -46 652 652;" xml:space="preserve">
<style type="text/css">
	.st0{fill-rule:evenodd;clip-rule:evenodd;fill:#0074C8;}
</style>
<path class="st0" d="M310.5,215.2c15.5,0,28.2,12.7,28.2,28.2v91.9h-31.8v-88.2c0-8.6-7.1-15.7-15.7-15.7H255v103.8h-31.8v-120
	H310.5 M440.2,215.2c15.5,0,28.2,12.7,28.2,28.2v63.7c0,15.5-12.7,28.2-28.2,28.2H381c-15.5,0-28.2-12.7-28.2-28.2v-63.7
	c0-15.5,12.7-28.2,28.2-28.2H440.2 M400.4,231.4c-8.6,0-15.7,7.1-15.7,15.7v56.3c0,8.6,7.1,15.7,15.7,15.7h20.4
	c8.6,0,15.7-7.1,15.7-15.7v-56.3c0-8.6-7.1-15.7-15.7-15.7H400.4z M26.2,215.2c-15.5,0-28.2,12.7-28.2,28.2v63.7
	c0,15.5,12.7,28.2,28.2,28.2h70.2v-16.2H45.6c-8.6,0-15.7-7.1-15.7-15.7V282h66.5v-16.2H45.6c-8.6,0-15.7-7.1-15.7-15.7v-3.1
	c0-8.6,7.1-15.7,15.7-15.7h50.8v-16.2H26.2 M138.8,215.2c-15.5,0-28.2,12.7-28.2,28.2v63.7c0,15.5,12.7,28.2,28.2,28.2h70.2v-16.2
	h-50.8c-8.6,0-15.7-7.1-15.7-15.7v-56.3c0-8.6,7.1-15.7,15.7-15.7h50.8v-16.2H138.8 M-16.1,215.2h-115.5v16.2h41.8v103.8H-58v-88.2
	c0-8.6,7-15.7,15.7-15.7h26.2V215.2z"/>
</svg>
